<svg width="20" height="18" viewBox="0 0 20 18" fill="none" xmlns="http://www.w3.org/2000/svg">
<path d="M17.5481 3.0053C17.1225 2.57947 16.6171 2.24167 16.0609 2.0112C15.5047 1.78074 14.9085 1.66211 14.3065 1.66211C13.7044 1.66211 13.1082 1.78074 12.552 2.0112C11.9958 2.24167 11.4904 2.57947 11.0648 3.0053L10.1815 3.88863L9.29812 3.0053C8.43838 2.14556 7.27232 1.66256 6.05646 1.66256C4.84059 1.66256 3.67453 2.14556 2.81479 3.0053C1.95504 3.86504 1.47205 5.03111 1.47205 6.24697C1.47205 7.46283 1.95504 8.62889 2.81479 9.48863L10.1815 16.8553L17.5481 9.48863C17.974 9.063 18.3117 8.55765 18.5422 8.00143C18.7727 7.44521 18.8913 6.84904 18.8913 6.24697C18.8913 5.64489 18.7727 5.04872 18.5422 4.49251C18.3117 3.93629 17.974 3.43093 17.5481 3.0053Z" stroke="#A5A5A5" stroke-width="2" stroke-linecap="round" stroke-linejoin="round"/>
</svg>
